REM DIRINDEX 1\2\5,1\2\6,1\2\7,1\2\8,1\3\9,1\3\10,1\3\11,1\4\12,1\4\13,1\4\14,1\4\15,1\4\16
REM DIRNAME cjc034,folder01,folder02,folder03,folder04,folder05,folder06,folder07,folder08,folder09,folder10,folder11,folder12,folder13,folder14,folder15
TITLE ""
FILE "1200_sec05_1469_1476.mp3" MP3
  TRACK 01 AUDIO
    TITLE "0:"
    INDEX 01 00:00:00
  TRACK 02 AUDIO
    TITLE "12:cjc034_09619"
    INDEX 01 00:00:17
  TRACK 03 AUDIO
    TITLE "0:"
    INDEX 01 00:01:50
  TRACK 04 AUDIO
    TITLE "13:cjc034_09620"
    INDEX 01 00:02:06
  TRACK 05 AUDIO
    TITLE "0:"
    INDEX 01 00:06:02
  TRACK 06 AUDIO
    TITLE "14:cjc034_09621"
    INDEX 01 00:06:33
  TRACK 07 AUDIO
    TITLE "0:"
    INDEX 01 00:07:62
  TRACK 08 AUDIO
    TITLE "15:cjc034_09622"
    INDEX 01 00:08:21
  TRACK 09 AUDIO
    TITLE "0:"
    INDEX 01 00:12:34
  TRACK 10 AUDIO
    TITLE "12:cjc034_09623"
    INDEX 01 00:13:67
  TRACK 11 AUDIO
    TITLE "0:"
    INDEX 01 00:15:19
  TRACK 12 AUDIO
    TITLE "13:cjc034_09624"
    INDEX 01 00:15:54
  TRACK 13 AUDIO
    TITLE "0:"
    INDEX 01 00:18:41
  TRACK 14 AUDIO
    TITLE "14:cjc034_09625"
    INDEX 01 00:18:74
  TRACK 15 AUDIO
    TITLE "0:"
    INDEX 01 00:20:26
  TRACK 16 AUDIO
    TITLE "15:cjc034_09626"
    INDEX 01 00:20:59
  TRACK 17 AUDIO
    TITLE "0:"
    INDEX 01 00:25:52
  TRACK 18 AUDIO
    TITLE "12:cjc034_09627"
    INDEX 01 00:27:06
  TRACK 19 AUDIO
    TITLE "0:"
    INDEX 01 00:28:37
  TRACK 20 AUDIO
    TITLE "13:cjc034_09628"
    INDEX 01 00:28:70
  TRACK 21 AUDIO
    TITLE "0:"
    INDEX 01 00:30:28
  TRACK 22 AUDIO
    TITLE "14:cjc034_09629"
    INDEX 01 00:30:61
  TRACK 23 AUDIO
    TITLE "0:"
    INDEX 01 00:32:17
  TRACK 24 AUDIO
    TITLE "15:cjc034_09630"
    INDEX 01 00:32:54
  TRACK 25 AUDIO
    TITLE "0:"
    INDEX 01 00:37:01
  TRACK 26 AUDIO
    TITLE "12:cjc034_09631"
    INDEX 01 00:38:33
  TRACK 27 AUDIO
    TITLE "0:"
    INDEX 01 00:39:56
  TRACK 28 AUDIO
    TITLE "13:cjc034_09632"
    INDEX 01 00:40:13
  TRACK 29 AUDIO
    TITLE "0:"
    INDEX 01 00:41:45
  TRACK 30 AUDIO
    TITLE "14:cjc034_09633"
    INDEX 01 00:42:04
  TRACK 31 AUDIO
    TITLE "0:"
    INDEX 01 00:43:25
  TRACK 32 AUDIO
    TITLE "15:cjc034_09634"
    INDEX 01 00:43:58
  TRACK 33 AUDIO
    TITLE "0:"
    INDEX 01 00:48:44
  TRACK 34 AUDIO
    TITLE "12:cjc034_09635"
    INDEX 01 00:50:05
  TRACK 35 AUDIO
    TITLE "0:"
    INDEX 01 00:51:26
  TRACK 36 AUDIO
    TITLE "13:cjc034_09636"
    INDEX 01 00:51:62
  TRACK 37 AUDIO
    TITLE "0:"
    INDEX 01 00:53:04
  TRACK 38 AUDIO
    TITLE "14:cjc034_09637"
    INDEX 01 00:53:39
  TRACK 39 AUDIO
    TITLE "0:"
    INDEX 01 00:54:58
  TRACK 40 AUDIO
    TITLE "15:cjc034_09638"
    INDEX 01 00:55:18
  TRACK 41 AUDIO
    TITLE "0:"
    INDEX 01 01:00:53
  TRACK 42 AUDIO
    TITLE "12:cjc034_09639"
    INDEX 01 01:02:12
  TRACK 43 AUDIO
    TITLE "0:"
    INDEX 01 01:03:10
  TRACK 44 AUDIO
    TITLE "13:cjc034_09640"
    INDEX 01 01:03:43
  TRACK 45 AUDIO
    TITLE "0:"
    INDEX 01 01:05:64
  TRACK 46 AUDIO
    TITLE "14:cjc034_09641"
    INDEX 01 01:06:22
  TRACK 47 AUDIO
    TITLE "0:"
    INDEX 01 01:07:21
  TRACK 48 AUDIO
    TITLE "15:cjc034_09642"
    INDEX 01 01:07:53
  TRACK 49 AUDIO
    TITLE "0:"
    INDEX 01 01:10:59
  TRACK 50 AUDIO
    TITLE "16:cjc034_09643"
    INDEX 01 01:12:19
  TRACK 51 AUDIO
    TITLE "0:"
    INDEX 01 01:13:73
  TRACK 52 AUDIO
    TITLE "12:cjc034_09644"
    INDEX 01 01:15:01
  TRACK 53 AUDIO
    TITLE "0:"
    INDEX 01 01:16:14
  TRACK 54 AUDIO
    TITLE "13:cjc034_09645"
    INDEX 01 01:16:46
  TRACK 55 AUDIO
    TITLE "0:"
    INDEX 01 01:18:43
  TRACK 56 AUDIO
    TITLE "14:cjc034_09646"
    INDEX 01 01:19:03
  TRACK 57 AUDIO
    TITLE "0:"
    INDEX 01 01:20:14
  TRACK 58 AUDIO
    TITLE "15:cjc034_09647"
    INDEX 01 01:20:46
  TRACK 59 AUDIO
    TITLE "0:"
    INDEX 01 01:24:04
  TRACK 60 AUDIO
    TITLE "12:cjc034_09648"
    INDEX 01 01:25:39
  TRACK 61 AUDIO
    TITLE "0:"
    INDEX 01 01:26:74
  TRACK 62 AUDIO
    TITLE "13:cjc034_09649"
    INDEX 01 01:27:30
  TRACK 63 AUDIO
    TITLE "0:"
    INDEX 01 01:28:43
  TRACK 64 AUDIO
    TITLE "14:cjc034_09650"
    INDEX 01 01:29:01
  TRACK 65 AUDIO
    TITLE "0:"
    INDEX 01 01:30:34
  TRACK 66 AUDIO
    TITLE "15:cjc034_09651"
    INDEX 01 01:30:67
  TRACK 67 AUDIO
    TITLE "0:"
    INDEX 01 01:36:11
